# xmcd CD database file
#
# Track frame offsets:
#	150
#	26874
#	63676
#	95164
#	140364
#	168237
#	200031
#	227578
#	263102
#	284226
#
# Disc length: 4080 seconds
#
# Revision: 0
# Processed by: cddbd v1.5.1PL0 Copyright (c) Steve Scherf et al.
# Submitted via: CDex 1.51
#
DISCID=9e0fee0a
DTITLE=Art Gore feat. Mike Wade and Gary Bartz - Art Work
DYEAR=1999
DGENRE=Jazz
TTITLE0=Back Stage Sally
TTITLE1=You And I
TTITLE2=My Secret Love
TTITLE3=Beachfront
TTITLE4=Grand Pa
TTITLE5=Feelin' It
TTITLE6=Adam
TTITLE7=Best Of Both Worlds
TTITLE8=Little Man
TTITLE9=Doxy
EXTD=YEAR: 1999
EXTT0=
EXTT1=
EXTT2=
EXTT3=
EXTT4=
EXTT5=
EXTT6=
EXTT7=
EXTT8=
EXTT9=
PLAYORDER=
